<svg width="24" height="24" viewBox="0 0 24 24" fill="none" xmlns="http://www.w3.org/2000/svg">
<path d="M9.94803 3.67045C10.5581 3.27161 11.2712 3.0592 12 3.0592C12.7289 3.0592 13.442 3.27161 14.052 3.67045L22.161 8.97145C22.2646 9.03913 22.3497 9.13138 22.409 9.23996C22.4682 9.34854 22.4997 9.47009 22.5006 9.59378C22.5015 9.71747 22.4718 9.83946 22.4141 9.94889C22.3564 10.0583 22.2726 10.1518 22.17 10.2209L14.103 15.6809C13.4824 16.1011 12.7502 16.3256 12.0008 16.3256C11.2514 16.3256 10.5191 16.1011 9.89853 15.6809L3.00003 11.0144V15.7499C3.00003 15.9489 2.92101 16.1396 2.78036 16.2803C2.63971 16.4209 2.44894 16.4999 2.25003 16.4999C2.05112 16.4999 1.86035 16.4209 1.7197 16.2803C1.57905 16.1396 1.50003 15.9489 1.50003 15.7499V9.74995C1.50003 9.72595 1.50003 9.70045 1.50303 9.67495C1.48979 9.53843 1.51409 9.40089 1.5733 9.27717C1.63252 9.15346 1.7244 9.04826 1.83903 8.97295L9.94803 3.67195V3.67045ZM4.50003 17.2484V13.8389L9.05703 16.9244C9.92582 17.5126 10.9509 17.8269 12 17.8269C13.0492 17.8269 14.0742 17.5126 14.943 16.9244L19.5 13.8389V17.2499C19.5001 17.428 19.4368 17.6003 19.3215 17.7359L18.75 17.2499L19.3215 17.7359L19.32 17.7389L19.317 17.7419L19.308 17.7524L19.278 17.7854C19.1234 17.9542 18.9618 18.1163 18.7935 18.2714C18.4635 18.5759 17.9805 18.9779 17.3565 19.3814C16.1115 20.1854 14.283 21.0014 12.0015 21.0014C9.71703 21.0014 7.89003 20.1854 6.64353 19.3814C6.13324 19.0532 5.65199 18.6818 5.20503 18.2714C5.03727 18.1163 4.87613 17.9542 4.72203 17.7854L4.69203 17.7524L4.68303 17.7419L4.68003 17.7389L5.25003 17.2514C4.67853 17.7359 4.68003 17.7374 4.68003 17.7374C4.56419 17.6014 4.50041 17.4286 4.50003 17.2499V17.2484Z" fill="#545454"/>
</svg>
