<svg width="35" height="40" viewBox="0 0 35 40" fill="none" xmlns="http://www.w3.org/2000/svg">
<path d="M11.8125 29.5312L17.5 23.8437L23.1875 29.5312L26.25 26.4688L20.5625 20.7812L26.25 15.0937L23.1875 12.0312L17.5 17.7188L11.8125 12.0312L8.75 15.0937L14.4375 20.7812L8.75 26.4688L11.8125 29.5312ZM6.5625 39.375C5.35937 39.375 4.32979 38.947 3.47375 38.0909C2.61625 37.2334 2.1875 36.2031 2.1875 35V6.5625H0V2.1875H10.9375V0H24.0625V2.1875H35V6.5625H32.8125V35C32.8125 36.2031 32.3845 37.2334 31.5284 38.0909C30.6709 38.947 29.6406 39.375 28.4375 39.375H6.5625Z" fill="#545454"/>
</svg>
