<svg width="40" height="40" viewBox="0 0 40 40" fill="none" xmlns="http://www.w3.org/2000/svg">
<path opacity="0.2" d="M33.0937 20.7969C33.1406 20.2656 33.0937 19.2031 33.0937 19.2031L35.6875 15.75C35.3245 14.4053 34.7888 13.1133 34.0937 11.9062L29.8281 11.2969C29.4635 10.9115 29.0885 10.5365 28.7031 10.1719L28.0937 5.90625C26.8875 5.20963 25.5953 4.67383 24.25 4.3125L20.7969 6.90625C20.2667 6.85936 19.7333 6.85936 19.2031 6.90625L15.75 4.3125C14.4053 4.67551 13.1133 5.21122 11.9062 5.90625L11.2969 10.1719C10.9115 10.5365 10.5365 10.9115 10.1719 11.2969L5.90625 11.9062C5.20963 13.1125 4.67383 14.4047 4.3125 15.75L6.90625 19.2031C6.85937 19.7344 6.90625 20.7969 6.90625 20.7969L4.3125 24.25C4.67551 25.5947 5.21122 26.8867 5.90625 28.0937L10.1719 28.7031C10.5365 29.099 10.9115 29.474 11.2969 29.8281L11.9062 34.0937C13.1125 34.7904 14.4047 35.3262 15.75 35.6875L19.2031 33.0937C19.7333 33.1406 20.2667 33.1406 20.7969 33.0937L24.25 35.6875C25.5947 35.3245 26.8867 34.7888 28.0937 34.0937L28.7031 29.8281C29.0937 29.4687 29.8281 28.7031 29.8281 28.7031L34.0937 28.0937C34.7904 26.8875 35.3262 25.5953 35.6875 24.25L33.0937 20.7969ZM20 27.5C18.5166 27.5 17.0666 27.0601 15.8332 26.236C14.5999 25.4119 13.6386 24.2406 13.0709 22.8701C12.5032 21.4997 12.3547 19.9917 12.6441 18.5368C12.9335 17.082 13.6478 15.7456 14.6967 14.6967C15.7456 13.6478 17.082 12.9335 18.5368 12.6441C19.9917 12.3547 21.4997 12.5032 22.8701 13.0709C24.2406 13.6386 25.4119 14.5999 26.236 15.8332C27.0601 17.0666 27.5 18.5166 27.5 20C27.5 21.9891 26.7098 23.8968 25.3033 25.3033C23.8968 26.7098 21.9891 27.5 20 27.5Z" fill="#545454"/>
<path d="M20 11.25C18.2694 11.25 16.5776 11.7631 15.1387 12.7246C13.6998 13.6861 12.5783 15.0526 11.916 16.6515C11.2537 18.2503 11.0805 20.0097 11.4181 21.707C11.7557 23.4043 12.5891 24.9634 13.8128 26.1871C15.0365 27.4108 16.5956 28.2442 18.2929 28.5818C19.9902 28.9194 21.7496 28.7462 23.3484 28.0839C24.9473 27.4216 26.3138 26.3001 27.2753 24.8612C28.2368 23.4223 28.75 21.7305 28.75 20C28.75 17.6793 27.8281 15.4537 26.1871 13.8128C24.5462 12.1718 22.3206 11.25 20 11.25ZM20 26.25C18.7638 26.25 17.5554 25.8834 16.5276 25.1966C15.4998 24.5099 14.6988 23.5338 14.2257 22.3917C13.7527 21.2497 13.6289 19.993 13.87 18.7806C14.1112 17.5683 14.7065 16.4546 15.5805 15.5805C16.4546 14.7065 17.5683 14.1112 18.7806 13.87C19.993 13.6289 21.2497 13.7527 22.3917 14.2257C23.5338 14.6988 24.5099 15.4998 25.1966 16.5276C25.8834 17.5554 26.25 18.7638 26.25 20C26.25 21.6576 25.5915 23.2473 24.4194 24.4194C23.2473 25.5915 21.6576 26.25 20 26.25ZM36.6875 23.5L34.3593 20.4062C34.375 20.125 34.3593 19.8281 34.3593 19.6093L36.6875 16.5C36.8032 16.3486 36.8819 16.1723 36.9172 15.985C36.9525 15.7978 36.9433 15.6049 36.8906 15.4218C36.4968 13.9813 35.9247 12.5956 35.1875 11.2968C35.0923 11.1318 34.9616 10.9901 34.8049 10.882C34.6481 10.7739 34.4692 10.7021 34.2812 10.6718L30.4531 10.125L29.875 9.54683L29.3281 5.7187C29.2978 5.53069 29.226 5.3518 29.1179 5.19503C29.0098 5.03826 28.8681 4.90757 28.7031 4.81245C27.4043 4.07524 26.0186 3.50311 24.5781 3.10933C24.395 3.05655 24.2021 3.04744 24.0149 3.08272C23.8276 3.11799 23.6513 3.19668 23.5 3.31245L20.4062 5.62495H19.5937L16.5 3.31245C16.3486 3.19668 16.1723 3.11799 15.985 3.08272C15.7978 3.04744 15.6049 3.05655 15.4218 3.10933C13.9813 3.50311 12.5956 4.07524 11.2968 4.81245C11.1318 4.90757 10.9901 5.03826 10.882 5.19503C10.7739 5.3518 10.7021 5.53069 10.6718 5.7187L10.125 9.54683L9.54683 10.125L5.7187 10.6718C5.53069 10.7021 5.3518 10.7739 5.19503 10.882C5.03826 10.9901 4.90757 11.1318 4.81245 11.2968C4.07524 12.5956 3.50311 13.9813 3.10933 15.4218C3.05655 15.6049 3.04744 15.7978 3.08272 15.985C3.11799 16.1723 3.19668 16.3486 3.31245 16.5L5.64058 19.5937V20.3906L3.31245 23.5C3.19668 23.6513 3.11799 23.8276 3.08272 24.0149C3.04744 24.2021 3.05655 24.395 3.10933 24.5781C3.50311 26.0186 4.07524 27.4043 4.81245 28.7031C4.90757 28.8681 5.03826 29.0098 5.19503 29.1179C5.3518 29.226 5.53069 29.2978 5.7187 29.3281L9.54683 29.875L10.125 30.4531L10.6718 34.2812C10.7021 34.4692 10.7739 34.6481 10.882 34.8049C10.9901 34.9616 11.1318 35.0923 11.2968 35.1875C12.5956 35.9247 13.9813 36.4968 15.4218 36.8906C15.5285 36.9215 15.6389 36.9372 15.75 36.9375C16.021 36.941 16.2852 36.8529 16.5 36.6875L19.5937 34.375H20.4062L23.5 36.6875C23.6513 36.8032 23.8276 36.8819 24.0149 36.9172C24.2021 36.9525 24.395 36.9433 24.5781 36.8906C26.0186 36.4968 27.4043 35.9247 28.7031 35.1875C28.8681 35.0923 29.0098 34.9616 29.1179 34.8049C29.226 34.6481 29.2978 34.4692 29.3281 34.2812L29.875 30.4375C30.0625 30.25 30.2812 30.0468 30.4375 29.875L34.2812 29.3281C34.4692 29.2978 34.6481 29.226 34.8049 29.1179C34.9616 29.0098 35.0923 28.8681 35.1875 28.7031C35.9247 27.4043 36.4968 26.0186 36.8906 24.5781C36.9433 24.395 36.9525 24.2021 36.9172 24.0149C36.8819 23.8276 36.8032 23.6513 36.6875 23.5ZM33.2968 26.9375L29.6562 27.4531C29.3752 27.4991 29.1171 27.6364 28.9218 27.8437C28.7343 28.0468 28.1562 28.6406 27.875 28.8906C27.6468 29.0867 27.497 29.3585 27.4531 29.6562L26.9375 33.2968C26.1592 33.7123 25.343 34.0524 24.5 34.3125L21.5468 32.0937C21.3091 31.9161 21.0142 31.8327 20.7187 31.8593H19.2812C18.9857 31.8327 18.6908 31.9161 18.4531 32.0937L15.5 34.3125C14.6569 34.0524 13.8407 33.7123 13.0625 33.2968L12.5468 29.6562C12.5029 29.3585 12.3531 29.0867 12.125 28.8906C11.7634 28.5759 11.424 28.2365 11.1093 27.875C10.9132 27.6468 10.6414 27.497 10.3437 27.4531L6.70308 26.9375C6.29419 26.1561 5.95436 25.3405 5.68745 24.5L7.9062 21.5468C8.06708 21.3179 8.1543 21.0454 8.1562 20.7656C8.14058 20.4843 8.12495 19.6718 8.14058 19.2812C8.16723 18.9857 8.08376 18.6908 7.9062 18.4531L5.68745 15.5C5.95436 14.6594 6.29419 13.8438 6.70308 13.0625L10.3437 12.5468C10.6414 12.5029 10.9132 12.3531 11.1093 12.125C11.424 11.7634 11.7634 11.424 12.125 11.1093C12.3531 10.9132 12.5029 10.6414 12.5468 10.3437L13.0625 6.70308C13.8438 6.29419 14.6594 5.95436 15.5 5.68745L18.4531 7.9062C18.6908 8.08376 18.9857 8.16723 19.2812 8.14058C19.75 8.12495 20.25 8.12495 20.7187 8.14058C21.0142 8.16723 21.3091 8.08376 21.5468 7.9062L24.5 5.68745C25.343 5.94755 26.1592 6.28764 26.9375 6.70308L27.4531 10.3437C27.497 10.6414 27.6468 10.9132 27.875 11.1093C28.2365 11.424 28.5759 11.7634 28.8906 12.125C29.0867 12.3531 29.3585 12.5029 29.6562 12.5468L33.2968 13.0625C33.7123 13.8407 34.0524 14.6569 34.3125 15.5L32.0937 18.4531C31.9328 18.682 31.8456 18.9545 31.8437 19.2343C31.8593 19.5156 31.875 20.3281 31.8593 20.7187C31.8327 21.0142 31.9161 21.3091 32.0937 21.5468L34.3125 24.5C34.0524 25.343 33.7123 26.1592 33.2968 26.9375Z" fill="white"/>
</svg>
