<svg width="218" height="183" viewBox="0 0 218 183" fill="none" xmlns="http://www.w3.org/2000/svg">
<path d="M138.921 137.189V181.303H43.4876C32.6142 181.303 23.7676 171.408 23.7676 159.246C23.7676 147.084 32.6142 137.189 43.4876 137.189H138.921Z" fill="#F2F2F2"/>
<path d="M141.265 180.964C141.265 181.414 141.11 181.845 140.835 182.164C140.561 182.482 140.188 182.661 139.8 182.661H41.7875C36.4643 182.661 31.3591 180.212 27.595 175.853C23.831 171.493 21.7163 165.581 21.7163 159.416C21.7163 153.251 23.831 147.339 27.595 142.98C31.3591 138.62 36.4643 136.172 41.7875 136.172H139.8C140.188 136.172 140.561 136.35 140.836 136.668C141.11 136.987 141.265 137.418 141.265 137.868C141.265 138.318 141.11 138.75 140.836 139.068C140.561 139.386 140.188 139.565 139.8 139.565H41.7875C37.2414 139.565 32.8815 141.656 29.6669 145.379C26.4523 149.102 24.6464 154.151 24.6464 159.416C24.6464 164.681 26.4523 169.73 29.6669 173.453C32.8815 177.176 37.2414 179.267 41.7875 179.267H139.8C140.188 179.268 140.561 179.446 140.835 179.765C141.11 180.083 141.265 180.514 141.265 180.964Z" fill="#F9A826"/>
<path d="M138.921 147.37H36.367C36.2893 147.37 36.2147 147.334 36.1598 147.27C36.1048 147.207 36.074 147.12 36.074 147.03C36.074 146.94 36.1048 146.854 36.1598 146.79C36.2147 146.727 36.2893 146.691 36.367 146.691H138.921C138.998 146.691 139.073 146.727 139.128 146.79C139.183 146.854 139.214 146.94 139.214 147.03C139.214 147.12 139.183 147.207 139.128 147.27C139.073 147.334 138.998 147.37 138.921 147.37Z" fill="#CCCCCC"/>
<path d="M138.921 155.514H36.367C36.2893 155.514 36.2147 155.478 36.1598 155.414C36.1048 155.351 36.074 155.264 36.074 155.174C36.074 155.084 36.1048 154.998 36.1598 154.934C36.2147 154.871 36.2893 154.835 36.367 154.835H138.921C138.998 154.835 139.073 154.871 139.128 154.934C139.183 154.998 139.214 155.084 139.214 155.174C139.214 155.264 139.183 155.351 139.128 155.414C139.073 155.478 138.998 155.514 138.921 155.514Z" fill="#CCCCCC"/>
<path d="M138.921 163.658H36.367C36.2893 163.658 36.2147 163.622 36.1598 163.558C36.1048 163.495 36.074 163.408 36.074 163.318C36.074 163.228 36.1048 163.142 36.1598 163.079C36.2147 163.015 36.2893 162.979 36.367 162.979H138.921C138.998 162.979 139.073 163.015 139.128 163.079C139.183 163.142 139.214 163.228 139.214 163.318C139.214 163.408 139.183 163.495 139.128 163.558C139.073 163.622 138.998 163.658 138.921 163.658Z" fill="#CCCCCC"/>
<path d="M138.921 171.802H36.367C36.2893 171.802 36.2147 171.766 36.1598 171.703C36.1048 171.639 36.074 171.553 36.074 171.463C36.074 171.373 36.1048 171.286 36.1598 171.223C36.2147 171.159 36.2893 171.123 36.367 171.123H138.921C138.998 171.123 139.073 171.159 139.128 171.223C139.183 171.286 139.214 171.373 139.214 171.463C139.214 171.553 139.183 171.639 139.128 171.703C139.073 171.766 138.998 171.802 138.921 171.802Z" fill="#CCCCCC"/>
<path d="M212.676 145.493L188.777 179.844L114.465 110.5C105.998 102.599 104.47 88.4663 111.059 78.996C117.648 69.5258 129.898 68.2489 138.364 76.1497L212.676 145.493Z" fill="#F2F2F2"/>
<path d="M190.786 181.283C190.542 181.633 190.188 181.857 189.802 181.905C189.416 181.953 189.029 181.822 188.726 181.54L112.406 110.322C108.261 106.454 105.613 100.838 105.043 94.708C104.474 88.5785 106.03 82.4382 109.37 77.6377C112.71 72.8373 117.56 69.77 122.853 69.1106C128.145 68.4512 133.447 70.2538 137.592 74.1218L213.912 145.339C214.062 145.479 214.187 145.652 214.279 145.847C214.372 146.043 214.43 146.258 214.451 146.479C214.471 146.701 214.454 146.925 214.4 147.139C214.346 147.353 214.256 147.552 214.135 147.726C214.014 147.899 213.865 148.044 213.696 148.15C213.527 148.257 213.342 148.324 213.15 148.348C212.959 148.372 212.765 148.352 212.581 148.289C212.396 148.226 212.224 148.122 212.074 147.982L135.754 76.7641C134.001 75.1273 131.987 73.9064 129.827 73.1712C127.667 72.4359 125.403 72.2008 123.164 72.4792C120.925 72.7576 118.756 73.544 116.78 74.7936C114.804 76.0432 113.059 77.7314 111.647 79.7619C110.234 81.7923 109.18 84.1252 108.546 86.6273C107.912 89.1293 107.71 91.7515 107.952 94.3441C108.193 96.9366 108.873 99.4487 109.953 101.737C111.032 104.025 112.491 106.044 114.245 107.68L190.565 178.897C190.867 179.18 191.06 179.59 191.102 180.037C191.143 180.484 191.03 180.932 190.786 181.283Z" fill="#CCCCCC"/>
<path d="M207.161 153.42L127.304 78.9028C127.275 78.8748 127.25 78.8403 127.231 78.8012C127.213 78.7621 127.201 78.7191 127.197 78.6748C127.193 78.6305 127.196 78.5857 127.207 78.5429C127.218 78.5002 127.236 78.4603 127.26 78.4256C127.284 78.3909 127.314 78.3621 127.348 78.3407C127.382 78.3194 127.419 78.3059 127.457 78.3011C127.495 78.2964 127.534 78.3004 127.571 78.3129C127.608 78.3255 127.642 78.3463 127.672 78.3743L207.529 152.892C207.559 152.92 207.584 152.954 207.602 152.994C207.621 153.033 207.632 153.076 207.637 153.12C207.641 153.164 207.637 153.209 207.626 153.252C207.616 153.295 207.598 153.335 207.573 153.369C207.549 153.404 207.519 153.433 207.486 153.454C207.452 153.476 207.415 153.489 207.376 153.494C207.338 153.499 207.299 153.495 207.262 153.482C207.225 153.469 207.191 153.448 207.161 153.42Z" fill="#CCCCCC"/>
<path d="M202.749 159.762L122.893 85.2444C122.832 85.1879 122.794 85.1059 122.785 85.0165C122.777 84.9271 122.8 84.8376 122.849 84.7675C122.897 84.6975 122.968 84.6528 123.045 84.6431C123.122 84.6334 123.2 84.6596 123.26 84.7159L203.117 159.234C203.147 159.262 203.172 159.296 203.19 159.335C203.209 159.374 203.22 159.417 203.225 159.462C203.229 159.506 203.225 159.551 203.214 159.594C203.204 159.636 203.186 159.676 203.161 159.711C203.137 159.746 203.107 159.775 203.074 159.796C203.04 159.817 203.003 159.831 202.964 159.835C202.926 159.84 202.887 159.836 202.851 159.824C202.814 159.811 202.779 159.79 202.749 159.762Z" fill="#CCCCCC"/>
<path d="M198.337 166.104L118.48 91.5861C118.42 91.5297 118.381 91.4477 118.373 91.3582C118.364 91.2687 118.387 91.1791 118.436 91.109C118.485 91.0389 118.556 90.9941 118.633 90.9845C118.71 90.9749 118.787 91.0012 118.848 91.0576L198.705 165.575C198.735 165.603 198.759 165.638 198.778 165.677C198.796 165.716 198.808 165.759 198.812 165.803C198.816 165.848 198.813 165.892 198.802 165.935C198.791 165.978 198.773 166.018 198.749 166.052C198.725 166.087 198.695 166.116 198.661 166.137C198.627 166.159 198.59 166.172 198.552 166.177C198.514 166.182 198.475 166.178 198.438 166.165C198.401 166.153 198.367 166.132 198.337 166.104Z" fill="#CCCCCC"/>
<path d="M193.925 172.445L114.068 97.9277C114.038 97.8997 114.013 97.8652 113.995 97.8261C113.976 97.787 113.965 97.744 113.961 97.6997C113.957 97.6554 113.96 97.6106 113.971 97.5679C113.982 97.5251 114 97.4852 114.024 97.4505C114.048 97.4158 114.078 97.387 114.112 97.3656C114.145 97.3443 114.182 97.3308 114.221 97.326C114.259 97.3213 114.298 97.3253 114.335 97.3378C114.371 97.3504 114.406 97.3712 114.436 97.3992L194.292 171.917C194.322 171.945 194.347 171.979 194.366 172.018C194.384 172.058 194.396 172.1 194.4 172.145C194.404 172.189 194.401 172.234 194.39 172.277C194.379 172.32 194.361 172.36 194.337 172.394C194.313 172.429 194.283 172.458 194.249 172.479C194.215 172.501 194.178 172.514 194.14 172.519C194.102 172.523 194.063 172.519 194.026 172.507C193.989 172.494 193.955 172.473 193.925 172.445Z" fill="#CCCCCC"/>
<path d="M99.0614 132.553L95.7117 132.552L94.1187 117.589L99.0626 117.59L99.0614 132.553Z" fill="#FFB8B8"/>
<path d="M93.3188 131.444H99.779V136.155H89.2512C89.2512 135.536 89.3564 134.923 89.5608 134.352C89.7653 133.78 90.0649 133.261 90.4426 132.824C90.8203 132.386 91.2687 132.039 91.7622 131.803C92.2557 131.566 92.7846 131.444 93.3188 131.444Z" fill="#2F2E41"/>
<path d="M64.8393 132.553L61.4896 132.552L59.8965 117.589L64.8405 117.59L64.8393 132.553Z" fill="#FFB8B8"/>
<path d="M59.0966 131.444H65.5569V136.155H55.0291C55.0291 135.536 55.1343 134.923 55.3387 134.352C55.5431 133.78 55.8427 133.261 56.2204 132.824C56.5981 132.386 57.0465 132.039 57.54 131.803C58.0335 131.566 58.5624 131.444 59.0966 131.444Z" fill="#2F2E41"/>
<path d="M76.0278 21.5592V19.8625C76.0278 16.96 77.0234 14.1765 78.7956 12.1241C80.5677 10.0718 82.9712 8.91882 85.4774 8.91882C87.9836 8.91882 90.3872 10.0718 92.1593 12.1241C93.9315 14.1765 94.927 16.96 94.927 19.8625V21.5592C94.927 23.6516 94.2093 25.6584 92.9317 27.138C91.6541 28.6176 89.9213 29.4488 88.1145 29.4488H82.8404C81.9457 29.4488 81.0598 29.2447 80.2333 28.8482C79.4068 28.4517 78.6558 27.8706 78.0232 27.138C77.3906 26.4053 76.8888 25.5356 76.5464 24.5784C76.204 23.6212 76.0278 22.5952 76.0278 21.5592Z" fill="#2F2E41"/>
<path d="M85.4772 30.0326C89.4518 30.0326 92.6738 26.3011 92.6738 21.6981C92.6738 17.0951 89.4518 13.3636 85.4772 13.3636C81.5026 13.3636 78.2805 17.0951 78.2805 21.6981C78.2805 26.3011 81.5026 30.0326 85.4772 30.0326Z" fill="#FFB8B8"/>
<path d="M46.3323 50.3425C46.6243 50.0232 46.9733 49.7818 47.3546 49.6356C47.7359 49.4893 48.1402 49.4416 48.5392 49.4958C48.9381 49.5501 49.3219 49.705 49.6635 49.9497C50.0052 50.1943 50.2964 50.5227 50.5166 50.9118L56.6858 49.5603L58.3093 53.7017L49.574 55.4686C48.9852 55.8536 48.2948 55.9752 47.6337 55.8101C46.9726 55.6451 46.3868 55.2049 45.9872 54.5731C45.5876 53.9412 45.402 53.1616 45.4656 52.3819C45.5292 51.6022 45.8376 50.8766 46.3323 50.3425Z" fill="#FFB8B8"/>
<path d="M79.9475 35.4229L69.8311 43.1409L52.7608 49.4537C52.5345 49.5379 52.3404 49.7103 52.2115 49.9416C52.0827 50.1729 52.027 50.4488 52.054 50.7223L52.4264 54.4369C52.4429 54.6013 52.4889 54.7599 52.5615 54.9025C52.634 55.0451 52.7315 55.1685 52.8476 55.265C52.9638 55.3614 53.096 55.4287 53.2359 55.4625C53.3758 55.4963 53.5203 55.4958 53.6601 55.4611L69.7258 51.473C70.5033 51.2811 71.2384 50.9062 71.8857 50.3717L83.2509 41.007C83.663 40.6657 83.9917 40.2067 84.2052 39.6746C84.4187 39.1426 84.5097 38.5556 84.4694 37.9708C84.4277 37.3852 84.2551 36.8222 83.9686 36.3373C83.682 35.8523 83.2914 35.4621 82.8352 35.205C82.3789 34.948 81.8727 34.8329 81.3664 34.8711C80.8601 34.9093 80.3711 35.0994 79.9475 35.4229Z" fill="#CCCCCC"/>
<path d="M95.7714 128.306C95.5143 128.306 95.2627 128.22 95.0474 128.057C94.8321 127.894 94.6624 127.662 94.559 127.39L79.2023 83.4452C79.1665 83.3499 79.1063 83.2696 79.0298 83.2151C78.9534 83.1606 78.8643 83.1345 78.7747 83.1404C78.6851 83.1462 78.5991 83.1837 78.5285 83.2478C78.4578 83.3119 78.4058 83.3996 78.3794 83.4989L65.8507 126.28C65.7978 126.48 65.7103 126.664 65.5936 126.823C65.4769 126.981 65.3334 127.11 65.172 127.202C65.0106 127.294 64.8346 127.347 64.655 127.357C64.4753 127.367 64.2958 127.335 64.1274 127.262L59.9261 125.437C59.698 125.339 59.498 125.169 59.3481 124.947C59.1982 124.726 59.1045 124.46 59.0772 124.18C57.1872 105.112 73.6692 56.9809 73.8359 56.4971L73.882 56.363L88.9068 60.2121L88.938 60.2515C94.9324 67.8248 99.8596 115.591 100.786 125.09C100.821 125.433 100.754 125.78 100.595 126.072C100.437 126.365 100.197 126.587 99.9159 126.701L96.2074 128.22C96.0674 128.277 95.9199 128.306 95.7714 128.306Z" fill="#2F2E41"/>
<path d="M82.826 61.7614C79.1858 61.7614 75.1274 60.9209 73.8781 57.4516L73.8494 57.3719L73.8882 57.298C74.8743 55.4243 76.1775 52.2281 75.477 51.6282C74.0972 50.4466 73.4276 48.5029 73.487 45.8508C73.6161 40.0937 77.0033 34.9822 81.9157 33.1316C83.2869 32.6234 84.6824 32.2073 86.095 31.8854C87.1248 31.6448 88.1879 31.6713 89.2079 31.9629C90.2278 32.2546 91.1793 32.8043 91.9941 33.5725C92.819 34.3457 93.4859 35.321 93.9467 36.4281C94.4075 37.5353 94.6509 38.747 94.6593 39.976C94.7108 46.1285 93.8929 54.6976 89.7038 60.5807C89.5075 60.8536 89.2343 61.0376 88.9323 61.1003C86.917 61.5225 84.8741 61.7436 82.826 61.7614Z" fill="#CCCCCC"/>
<path d="M81.472 61.5311C81.6701 60.7081 82.1406 60.0089 82.7814 59.5854C83.4221 59.162 84.1813 59.0485 84.8939 59.2697C85.0393 59.3167 85.1812 59.3776 85.3181 59.4516L90.0024 54.5146L93.2601 57.0564L86.5613 63.9215C86.2588 64.5531 85.7826 65.0494 85.2085 65.3314C84.6344 65.6135 83.9953 65.665 83.3929 65.4779C83.042 65.3667 82.7137 65.176 82.4268 64.9169C82.1399 64.6579 81.9003 64.3355 81.7216 63.9685C81.543 63.6015 81.429 63.1971 81.3861 62.7787C81.3433 62.3603 81.3724 61.9363 81.472 61.5311Z" fill="#FFB8B8"/>
<path d="M89.2604 61.5937C88.9565 61.5939 88.6618 61.4722 88.4267 61.2492L86.5794 59.501C86.4254 59.3552 86.3019 59.171 86.2181 58.9622C86.1342 58.7533 86.0923 58.5252 86.0954 58.295C86.0984 58.0647 86.1465 57.8382 86.2358 57.6324C86.3252 57.4267 86.4536 57.247 86.6114 57.1069L94.359 50.2252C94.4509 50.1432 94.5111 50.0226 94.5267 49.8895C94.5422 49.7565 94.5118 49.6217 94.4421 49.5144L89.6601 42.1928C89.1045 41.345 88.8258 40.2968 88.8734 39.234C88.921 38.1711 89.2918 37.162 89.9201 36.3853C90.5818 35.5576 91.4881 35.0482 92.459 34.9583C93.4299 34.8684 94.3945 35.2044 95.1614 35.8998L95.1917 35.9367L100.185 44.2174C100.725 44.7077 101.16 45.3359 101.456 46.053C101.751 46.7701 101.9 47.5566 101.89 48.3512C101.879 49.1457 101.711 49.9268 101.397 50.6334C101.083 51.34 100.632 51.9529 100.08 52.4244L90.0453 61.2942C89.8181 61.4887 89.543 61.5937 89.2604 61.5937Z" fill="#CCCCCC"/>
<path d="M79.1028 19.3534V15.2182L85.4774 11.9945L91.5557 15.2182V19.3534C91.5557 19.5334 91.494 19.7061 91.3841 19.8333C91.2742 19.9606 91.1251 20.0321 90.9697 20.0321H79.6888C79.5334 20.0321 79.3843 19.9606 79.2744 19.8333C79.1645 19.7061 79.1028 19.5334 79.1028 19.3534Z" fill="#2F2E41"/>
<path d="M85.1847 9.46739C84.2474 5.99308 86.2159 2.01135 89.126 0.636126C92.036 -0.739097 95.5175 0.222226 97.973 2.4943C100.429 4.76638 101.952 8.16952 102.759 11.6874C103.566 15.2052 103.72 18.8734 103.869 22.5093C107.444 23.2699 109.876 28.1811 108.638 32.1391C107.399 36.0972 102.815 38.0635 99.6488 35.9948C96.4828 33.926 95.5658 28.3649 97.8507 25.0906C98.9319 23.5413 99.5359 21.6185 99.567 19.6268C99.598 17.6351 99.0544 15.6883 98.0223 14.0947C96.9901 12.5012 95.5284 11.352 93.8686 10.8292C92.2088 10.3064 90.4458 10.4398 88.8589 11.2084C87.0968 12.0618 84.8858 9.84448 85.1847 9.46739Z" fill="#2F2E41"/>
<path d="M45.0104 34.3012C40.7297 34.2686 36.5026 33.1964 32.602 31.1539C32.3698 31.034 32.1727 30.8386 32.0348 30.5913C31.8968 30.344 31.8239 30.0556 31.825 29.7612V17.4032C31.8254 16.9984 31.9644 16.6102 32.2116 16.324C32.4588 16.0377 32.7939 15.8767 33.1435 15.8762H56.8774C57.227 15.8767 57.5621 16.0377 57.8093 16.324C58.0565 16.6103 58.1955 16.9984 58.1959 17.4032V29.7612C58.197 30.0556 58.1241 30.344 57.9861 30.5913C57.8482 30.8386 57.6511 31.034 57.4189 31.1539C53.5183 33.1965 49.2911 34.2686 45.0104 34.3012Z" fill="#F9A826"/>
<path d="M45.0074 24.2897C44.8315 24.2899 44.6573 24.2493 44.495 24.1704L25.6744 14.9745C25.4317 14.8559 25.2252 14.6559 25.0816 14.4001C24.938 14.1444 24.8638 13.8447 24.8686 13.5397C24.8735 13.2347 24.9571 12.9383 25.1087 12.6888C25.2603 12.4394 25.473 12.2482 25.7193 12.14L44.5402 3.87111C44.8433 3.73732 45.1785 3.73814 45.4811 3.87343L64.0498 12.1423C64.2947 12.2514 64.5059 12.4426 64.6565 12.6915C64.807 12.9403 64.89 13.2356 64.8949 13.5394C64.8997 13.8432 64.8262 14.1418 64.6837 14.3969C64.5412 14.6521 64.3362 14.8522 64.0949 14.9717L45.526 24.1674C45.3621 24.2483 45.1856 24.2899 45.0074 24.2897Z" fill="#F9A826"/>
<path d="M34.0227 31.9948C34.9937 31.9948 35.7808 31.0832 35.7808 29.9588C35.7808 28.8343 34.9937 27.9227 34.0227 27.9227C33.0518 27.9227 32.2646 28.8343 32.2646 29.9588C32.2646 31.0832 33.0518 31.9948 34.0227 31.9948Z" fill="#3F3D56"/>
<path opacity="0.2" d="M64.159 13.6665L45.59 22.8623C45.4453 22.934 45.2895 22.9712 45.1321 22.9716C44.9746 22.9721 44.8187 22.9358 44.6737 22.8649L25.853 13.6692C25.6167 13.5565 25.4195 13.3558 25.2926 13.0988C25.2096 13.2654 25.1582 13.4506 25.1417 13.6421C25.1253 13.8335 25.1442 14.0268 25.1972 14.2091C25.2502 14.3915 25.3361 14.5586 25.4492 14.6996C25.5622 14.8405 25.6999 14.952 25.853 15.0266L44.6737 24.2222C44.8187 24.2931 44.9746 24.3294 45.1321 24.329C45.2895 24.3285 45.4453 24.2914 45.59 24.2197L64.159 15.0239C64.3114 14.9486 64.4482 14.8368 64.5605 14.6958C64.6728 14.5548 64.7579 14.3878 64.8104 14.2059C64.8629 14.024 64.8814 13.8312 64.8648 13.6404C64.8482 13.4495 64.7969 13.2649 64.7141 13.0988C64.5882 13.3537 64.393 13.5533 64.159 13.6665Z" fill="black"/>
<path d="M34.1707 29.9508C34.2484 29.9508 34.3229 29.915 34.3779 29.8514C34.4328 29.7877 34.4637 29.7014 34.4637 29.6114V18.2567L44.1276 14.1795C44.2053 14.1809 44.2803 14.1464 44.336 14.0837C44.3918 14.021 44.4238 13.9352 44.4249 13.8452C44.4261 13.7552 44.3963 13.6684 44.3422 13.6038C44.2881 13.5392 44.214 13.5022 44.1363 13.5009L34.4724 17.578C34.3947 17.576 34.3173 17.5922 34.2452 17.6258C34.173 17.6593 34.1074 17.7095 34.0525 17.7732C33.9969 17.8362 33.9528 17.9114 33.9228 17.9945C33.8928 18.0775 33.8775 18.1667 33.8777 18.2567V29.6114C33.8777 29.7014 33.9086 29.7877 33.9635 29.8514C34.0185 29.915 34.093 29.9508 34.1707 29.9508Z" fill="#3F3D56"/>
</svg>
