<svg width="239" height="177" viewBox="0 0 239 177" fill="none" xmlns="http://www.w3.org/2000/svg">
<g clip-path="url(#clip0_162_346)">
<path d="M88.586 108.638L39.111 119.066C37.6812 119.366 36.1909 119.086 34.9671 118.289C33.7433 117.491 32.8859 116.24 32.583 114.811L24.0932 74.5335C23.7935 73.1037 24.0732 71.6134 24.8709 70.3896C25.6686 69.1658 26.9192 68.3084 28.3482 68.0055L77.8233 57.5771C79.253 57.2774 80.7433 57.5571 81.9671 58.3548C83.1909 59.1525 84.0483 60.4031 84.3512 61.8321L92.841 102.11C93.1407 103.54 92.861 105.03 92.0633 106.254C91.2656 107.477 90.0151 108.335 88.586 108.638ZM28.482 68.6398C27.221 68.9071 26.1176 69.6636 25.4137 70.7435C24.7098 71.8233 24.4631 73.1382 24.7275 74.3998L33.2173 114.677C33.4846 115.938 34.2411 117.042 35.3209 117.746C36.4008 118.45 37.7157 118.696 38.9773 118.432L88.4523 108.004C89.7132 107.736 90.8167 106.98 91.5205 105.9C92.2244 104.82 92.4712 103.505 92.2068 102.244L83.7169 61.9658C83.4496 60.7049 82.6931 59.6014 81.6133 58.8976C80.5334 58.1937 79.2185 57.9469 77.957 58.2114L28.482 68.6398Z" fill="#3F3D56"/>
<path d="M74.7494 70.8578L49.78 76.1209C49.5615 76.1716 49.3319 76.1375 49.1376 76.0254C48.9433 75.9133 48.7988 75.7316 48.7333 75.5171C48.7034 75.4052 48.6966 75.2884 48.7132 75.1738C48.7299 75.0591 48.7698 74.9491 48.8304 74.8504C48.891 74.7517 48.9711 74.6664 49.0658 74.5997C49.1605 74.533 49.2678 74.4863 49.3811 74.4624L74.7984 69.1049C75.7908 69.6641 75.4772 70.7044 74.7491 70.8579L74.7494 70.8578Z" fill="#CCCCCC"/>
<path d="M75.6727 75.2375L50.7033 80.5006C50.4848 80.5513 50.2552 80.5171 50.0609 80.4051C49.8666 80.293 49.7221 80.1113 49.6567 79.8967C49.6267 79.7848 49.6199 79.668 49.6366 79.5534C49.6533 79.4388 49.6932 79.3288 49.7538 79.2301C49.8144 79.1314 49.8945 79.0461 49.9892 78.9794C50.0838 78.9126 50.1911 78.8659 50.3044 78.842L75.7217 73.4845C76.7142 74.0438 76.4008 75.084 75.6727 75.2375Z" fill="#CCCCCC"/>
<path d="M45.8311 84.1322L38.2106 85.7384C37.9618 85.7906 37.7024 85.7419 37.4894 85.6031C37.2763 85.4642 37.1271 85.2466 37.0744 84.9978L35.1789 76.0051C35.1267 75.7562 35.1754 75.4968 35.3142 75.2838C35.4531 75.0708 35.6708 74.9215 35.9195 74.8688L43.5399 73.2626C43.7888 73.2105 44.0482 73.2592 44.2612 73.398C44.4742 73.5369 44.6234 73.7545 44.6762 74.0032L46.5717 82.9959C46.6239 83.2448 46.5752 83.5042 46.4364 83.7172C46.2975 83.9303 46.0798 84.0795 45.8311 84.1322Z" fill="#CCCCCC"/>
<path d="M77.4901 84.2206L39.3823 92.253C39.1638 92.3037 38.9342 92.2696 38.7399 92.1575C38.5456 92.0454 38.4011 91.8637 38.3356 91.6492C38.3057 91.5373 38.2988 91.4205 38.3155 91.3059C38.3322 91.1913 38.3721 91.0813 38.4327 90.9826C38.4933 90.8839 38.5734 90.7985 38.6681 90.7318C38.7628 90.6651 38.8701 90.6184 38.9834 90.5945L77.5395 82.4675C78.5319 83.0268 78.2182 84.0671 77.4901 84.2206Z" fill="#CCCCCC"/>
<path d="M78.4137 88.6017L40.3059 96.6341C40.0874 96.6849 39.8578 96.6507 39.6635 96.5386C39.4692 96.4265 39.3247 96.2448 39.2592 96.0303C39.2293 95.9184 39.2224 95.8016 39.2391 95.687C39.2558 95.5724 39.2957 95.4624 39.3563 95.3637C39.4169 95.265 39.497 95.1797 39.5917 95.1129C39.6864 95.0462 39.7937 94.9995 39.907 94.9756L78.4631 86.8486C79.4555 87.4079 79.1418 88.4482 78.4137 88.6017Z" fill="#CCCCCC"/>
<path d="M79.3364 92.9798L41.2285 101.012C41.01 101.063 40.7804 101.029 40.5861 100.917C40.3918 100.805 40.2473 100.623 40.1818 100.408C40.1519 100.297 40.145 100.18 40.1617 100.065C40.1784 99.9505 40.2183 99.8405 40.2789 99.7418C40.3395 99.6431 40.4196 99.5578 40.5143 99.4911C40.609 99.4244 40.7163 99.3776 40.8296 99.3538L79.3857 91.2268C80.3781 91.7861 80.0644 92.8264 79.3364 92.9798Z" fill="#CCCCCC"/>
<path d="M80.2599 97.3606L42.1521 105.393C41.9336 105.444 41.704 105.41 41.5097 105.298C41.3154 105.185 41.1709 105.004 41.1054 104.789C41.0755 104.677 41.0686 104.561 41.0853 104.446C41.102 104.331 41.1419 104.221 41.2025 104.123C41.2631 104.024 41.3432 103.939 41.4379 103.872C41.5326 103.805 41.6398 103.758 41.7532 103.734L80.3093 95.6075C81.3017 96.1668 80.988 97.2071 80.2599 97.3606Z" fill="#CCCCCC"/>
<path d="M81.1828 101.739L43.0749 109.772C42.8564 109.822 42.6268 109.788 42.4325 109.676C42.2382 109.564 42.0937 109.382 42.0283 109.168C41.9983 109.056 41.9915 108.939 42.0082 108.824C42.0249 108.71 42.0647 108.6 42.1254 108.501C42.186 108.402 42.2661 108.317 42.3607 108.25C42.4554 108.184 42.5627 108.137 42.676 108.113L81.2321 99.9861C82.2246 100.545 81.9109 101.586 81.1828 101.739Z" fill="#CCCCCC"/>
<path d="M87.2612 81.687C87.1747 81.8441 87.1006 82.0078 87.0398 82.1765L71.439 86.0479L68.725 83.2402L63.9524 86.7822L68.2739 92.2196C68.623 92.6588 69.1052 92.973 69.6481 93.1149C70.191 93.2568 70.7652 93.2188 71.2846 93.0065L88.213 86.0892C88.7694 86.4988 89.4373 86.7292 90.1279 86.7499C90.8185 86.7706 91.4991 86.5806 92.079 86.2051C92.659 85.8296 93.1108 85.2864 93.3746 84.6479C93.6383 84.0093 93.7013 83.3055 93.5553 82.6302C93.4093 81.9549 93.0612 81.3401 92.5573 80.8675C92.0533 80.3948 91.4174 80.0869 90.7341 79.9845C90.0508 79.8821 89.3526 79.9901 88.7322 80.2943C88.1118 80.5984 87.5988 81.0842 87.2612 81.687Z" fill="#FFB8B8"/>
<path d="M34.0104 116.138C34.4968 115.988 34.9443 115.733 35.3215 115.391C35.6986 115.049 35.9962 114.629 36.1933 114.159C36.3904 113.69 36.4822 113.183 36.4622 112.675C36.4423 112.166 36.311 111.668 36.0777 111.216L46.8138 81.375L39.358 80.0537L31.1492 109.801C30.4151 110.244 29.8688 110.94 29.6137 111.758C29.3587 112.576 29.4126 113.46 29.7653 114.241C30.1179 115.022 30.7449 115.646 31.5273 115.996C32.3097 116.346 33.1932 116.396 34.0104 116.138Z" fill="#FFB8B8"/>
<path d="M45.4502 86.6721L38.0887 83.8468C37.8793 83.7664 37.6896 83.6418 37.5326 83.4815C37.3757 83.3212 37.2551 83.129 37.1791 82.9179C37.1032 82.7068 37.0736 82.4818 37.0924 82.2582C37.1112 82.0347 37.178 81.8178 37.2882 81.6224L41.1501 74.7752C41.5677 73.7063 42.3921 72.8466 43.4425 72.3844C44.493 71.9223 45.6838 71.8955 46.754 72.3098C47.8242 72.7241 48.6864 73.5458 49.1518 74.5948C49.6172 75.6438 49.6478 76.8345 49.2368 77.906L47.5334 85.5544C47.4845 85.7733 47.3891 85.9792 47.2535 86.158C47.1179 86.3367 46.9454 86.4841 46.7477 86.5902C46.55 86.6963 46.3318 86.7585 46.1079 86.7726C45.884 86.7868 45.6597 86.7524 45.4502 86.6721Z" fill="#F9A826"/>
<path d="M62.0661 172.162H66.0394L67.93 156.836L62.0654 156.836L62.0661 172.162Z" fill="#FFB8B8"/>
<path d="M61.0522 170.865L68.8776 170.865H68.878C69.5329 170.865 70.1814 170.994 70.7864 171.245C71.3915 171.495 71.9412 171.862 72.4043 172.326C72.8674 172.789 73.2348 173.338 73.4854 173.943C73.736 174.549 73.865 175.197 73.865 175.852V176.014L61.0525 176.014L61.0522 170.865Z" fill="#2F2E41"/>
<path d="M39.7018 172.162H43.6752L45.5657 156.836L39.7012 156.836L39.7018 172.162Z" fill="#FFB8B8"/>
<path d="M38.6882 170.865L46.5136 170.865H46.514C47.1689 170.865 47.8173 170.994 48.4224 171.245C49.0275 171.495 49.5772 171.862 50.0403 172.326C50.5034 172.789 50.8707 173.338 51.1214 173.943C51.372 174.549 51.501 175.197 51.501 175.852V176.014L38.6885 176.014L38.6882 170.865Z" fill="#2F2E41"/>
<path d="M43.8677 165.994H38.8391C38.6418 165.994 38.4464 165.954 38.265 165.876C38.0836 165.798 37.9198 165.685 37.7836 165.542C37.6474 165.399 37.5416 165.23 37.4726 165.045C37.4036 164.86 37.3729 164.663 37.3823 164.466L39.7708 113.148L39.9213 113.144L64.2038 112.511L68.9555 163.858C68.9738 164.051 68.9536 164.245 68.8961 164.429C68.8387 164.614 68.7451 164.785 68.6208 164.934C68.4965 165.082 68.344 165.204 68.1722 165.292C68.0003 165.381 67.8126 165.435 67.6199 165.45L61.9717 165.902C61.6169 165.93 61.264 165.827 60.9794 165.614C60.6949 165.4 60.4983 165.089 60.4266 164.741L53.202 128.188C53.1823 128.077 53.1234 127.977 53.036 127.905C52.9487 127.834 52.8386 127.796 52.7259 127.799H52.7239C52.6108 127.797 52.5005 127.835 52.4132 127.907C52.326 127.979 52.2676 128.08 52.2486 128.192L45.2987 164.817C45.2329 165.148 45.0544 165.446 44.7935 165.661C44.5326 165.876 44.2054 165.993 43.8677 165.994Z" fill="#2F2E41"/>
<path d="M53.0788 67.3788C57.4753 67.3788 61.0394 63.8147 61.0394 59.4181C61.0394 55.0216 57.4753 51.4575 53.0788 51.4575C48.6823 51.4575 45.1182 55.0216 45.1182 59.4181C45.1182 63.8147 48.6823 67.3788 53.0788 67.3788Z" fill="#FFB8B8"/>
<path d="M50.4097 119.162C46.6155 119.162 42.7183 118.164 39.4876 115.216C39.3157 115.06 39.1829 114.866 39.1002 114.649C39.0174 114.432 38.987 114.199 39.0113 113.968C39.3571 110.861 41.0345 94.8189 40.0898 84.1027C39.9055 82.1011 40.1889 80.0841 40.9176 78.2107C41.6463 76.3374 42.8005 74.659 44.289 73.3082C45.7514 71.9603 47.507 70.9708 49.4173 70.4177C51.3276 69.8645 53.3403 69.7629 55.2966 70.1208C55.3958 70.1385 55.4949 70.1572 55.5942 70.1762C61.9675 71.4097 66.3956 77.308 65.8946 83.8964C65.1634 93.5097 64.508 106.513 65.5372 113.867C65.5798 114.168 65.5273 114.474 65.3869 114.744C65.2466 115.013 65.0254 115.232 64.7545 115.37C62.4128 116.553 56.5459 119.162 50.4097 119.162Z" fill="#F9A826"/>
<path d="M60.7971 87.2448C60.6103 87.1206 60.4525 86.9574 60.3345 86.7666C60.2165 86.5758 60.1411 86.3618 60.1134 86.1391L59.1435 78.3637C58.8356 77.2579 58.9788 76.0751 59.5416 75.0748C60.1044 74.0744 61.0409 73.338 62.1458 73.027C63.2507 72.7161 64.4339 72.8559 65.4358 73.4159C66.4378 73.9759 67.1768 74.9104 67.4908 76.0144L70.6854 83.1972C70.7766 83.4022 70.8225 83.6245 70.82 83.8488C70.8175 84.0731 70.7667 84.2943 70.6711 84.4972C70.5754 84.7002 70.4372 84.8801 70.2657 85.0248C70.0942 85.1695 69.8936 85.2755 69.6774 85.3356L62.081 87.4495C61.8649 87.5098 61.6383 87.5227 61.4167 87.4874C61.1951 87.452 60.9838 87.3693 60.7971 87.2448Z" fill="#F9A826"/>
<path d="M50.3 67.2663C49.5465 67.2803 48.7977 67.1448 48.0969 66.8677C47.7885 66.7489 47.4684 66.6512 47.1606 66.5323C44.4424 65.4821 42.6518 62.5872 42.5877 59.6738C42.5235 56.7605 44.0322 53.9328 46.2726 52.0693C48.5129 50.2058 51.4147 49.2491 54.3203 49.0278C57.4502 48.7895 60.9745 49.5832 62.7235 52.1898C63.189 52.8836 63.5146 53.7254 63.2387 54.5631C63.1561 54.8159 63.0085 55.0425 62.8108 55.2204C62.0298 55.9153 61.2511 55.3928 60.4549 55.3466C59.3605 55.2832 58.3775 56.169 58.0242 57.2068C57.671 58.2445 57.8265 59.387 58.1117 60.4454C58.329 61.0823 58.466 61.7439 58.5195 62.4147C58.5426 62.7511 58.4793 63.0878 58.3357 63.3929C58.1922 63.6979 57.9731 63.9613 57.6992 64.158C57.0154 64.5714 56.1173 64.3321 55.433 63.9194C54.7488 63.5067 54.1575 62.9329 53.4184 62.6292C52.6793 62.3255 51.6863 62.3929 51.2561 63.0663C51.1193 63.3113 51.0268 63.5785 50.9827 63.8556C50.597 65.6127 50.6856 65.5092 50.3 67.2663Z" fill="#2F2E41"/>
<path d="M160.564 56.3962H110.002C108.541 56.3946 107.14 55.8135 106.107 54.7806C105.074 53.7476 104.493 52.3471 104.492 50.8862V9.72348C104.493 8.26265 105.074 6.86212 106.107 5.82915C107.14 4.79619 108.541 4.21515 110.002 4.2135H160.564C162.025 4.21515 163.425 4.79619 164.458 5.82915C165.491 6.86212 166.072 8.26265 166.074 9.72348V50.8862C166.072 52.3471 165.491 53.7476 164.458 54.7806C163.425 55.8135 162.025 56.3946 160.564 56.3962ZM110.002 4.86173C108.713 4.86319 107.477 5.37588 106.566 6.28731C105.654 7.19875 105.141 8.43451 105.14 9.72348V50.8862C105.141 52.1752 105.654 53.411 106.566 54.3224C107.477 55.2338 108.713 55.7465 110.002 55.748H160.564C161.853 55.7465 163.089 55.2338 164 54.3224C164.911 53.411 165.424 52.1752 165.426 50.8862V9.72348C165.424 8.43451 164.911 7.19875 164 6.28731C163.089 5.37588 161.853 4.86319 160.564 4.86173H110.002Z" fill="#3F3D56"/>
<path d="M154.817 16.5746H129.299C129.074 16.5791 128.857 16.4983 128.69 16.3486C128.523 16.1988 128.419 15.9912 128.399 15.7678C128.393 15.6522 128.41 15.5364 128.45 15.4277C128.49 15.319 128.552 15.2196 128.631 15.1355C128.711 15.0515 128.807 14.9845 128.913 14.9387C129.02 14.893 129.134 14.8694 129.25 14.8694H155.226C156.082 15.6213 155.561 16.5746 154.817 16.5746Z" fill="#CCCCCC"/>
<path d="M154.817 21.0506H129.299C129.074 21.0552 128.857 20.9744 128.69 20.8247C128.523 20.6749 128.419 20.4673 128.399 20.2439C128.393 20.1282 128.41 20.0125 128.45 19.9038C128.49 19.7951 128.552 19.6957 128.631 19.6116C128.711 19.5275 128.807 19.4606 128.913 19.4148C129.02 19.3691 129.134 19.3455 129.25 19.3455H155.226C156.082 20.0974 155.561 21.0506 154.817 21.0506Z" fill="#CCCCCC"/>
<path d="M123.782 23.5992H115.994C115.74 23.5989 115.496 23.4978 115.317 23.318C115.137 23.1382 115.036 22.8944 115.035 22.6401V13.4498C115.036 13.1955 115.137 12.9517 115.317 12.7719C115.496 12.5921 115.74 12.491 115.994 12.4907H123.782C124.037 12.4911 124.28 12.5922 124.46 12.772C124.64 12.9518 124.741 13.1955 124.741 13.4498V22.6401C124.741 22.8944 124.64 23.1382 124.46 23.318C124.28 23.4978 124.037 23.5989 123.782 23.5992Z" fill="#3F3D56"/>
<path d="M154.743 30.2154H115.797C115.573 30.22 115.355 30.1392 115.188 29.9894C115.021 29.8397 114.918 29.6321 114.898 29.4087C114.891 29.293 114.909 29.1773 114.949 29.0686C114.989 28.9599 115.051 28.8605 115.13 28.7764C115.21 28.6923 115.306 28.6254 115.412 28.5796C115.519 28.5339 115.633 28.5103 115.749 28.5103H155.152C156.008 29.2622 155.487 30.2154 154.743 30.2154Z" fill="#CCCCCC"/>
<path d="M154.743 34.6927H115.797C115.573 34.6973 115.355 34.6165 115.188 34.4667C115.021 34.317 114.918 34.1094 114.898 33.886C114.891 33.7703 114.909 33.6546 114.949 33.5459C114.989 33.4372 115.051 33.3378 115.13 33.2537C115.21 33.1696 115.306 33.1027 115.412 33.0569C115.519 33.0111 115.633 32.9876 115.749 32.9875H155.152C156.008 33.7395 155.487 34.6927 154.743 34.6927Z" fill="#CCCCCC"/>
<path d="M154.743 39.1672H115.797C115.573 39.1718 115.355 39.091 115.188 38.9412C115.021 38.7915 114.918 38.5839 114.898 38.3605C114.891 38.2448 114.909 38.1291 114.949 38.0204C114.989 37.9117 115.051 37.8123 115.13 37.7282C115.21 37.6441 115.306 37.5772 115.412 37.5314C115.519 37.4856 115.633 37.462 115.749 37.462H155.152C156.008 38.214 155.487 39.1672 154.743 39.1672Z" fill="#CCCCCC"/>
<path d="M154.743 43.6442H115.797C115.573 43.6488 115.355 43.568 115.188 43.4183C115.021 43.2685 114.918 43.061 114.898 42.8375C114.891 42.7219 114.909 42.6062 114.949 42.4974C114.989 42.3887 115.051 42.2893 115.13 42.2052C115.21 42.1212 115.306 42.0542 115.412 42.0085C115.519 41.9627 115.633 41.9391 115.749 41.9391H155.152C156.008 42.691 155.487 43.6442 154.743 43.6442Z" fill="#CCCCCC"/>
<path d="M154.743 48.1189H115.797C115.573 48.1234 115.355 48.0427 115.188 47.8929C115.021 47.7431 114.918 47.5356 114.898 47.3121C114.891 47.1965 114.909 47.0808 114.949 46.9721C114.989 46.8633 115.051 46.7639 115.13 46.6798C115.21 46.5958 115.306 46.5288 115.412 46.4831C115.519 46.4373 115.633 46.4137 115.749 46.4137H155.152C156.008 47.1656 155.487 48.1189 154.743 48.1189Z" fill="#CCCCCC"/>
<path d="M149.544 0C149.974 0.000491539 150.386 0.171389 150.689 0.4752C150.993 0.779011 151.164 1.19093 151.165 1.62058V6.80644C151.164 7.23609 150.993 7.64801 150.689 7.95182C150.386 8.25563 149.974 8.42653 149.544 8.42702H121.022C120.592 8.42653 120.18 8.25563 119.876 7.95182C119.573 7.64801 119.402 7.23609 119.401 6.80644V1.62058C119.402 1.19093 119.573 0.779011 119.876 0.4752C120.18 0.171389 120.592 0.000491539 121.022 0" fill="#F9A826"/>
<path d="M233.49 107.282H182.928C181.467 107.281 180.067 106.7 179.034 105.667C178.001 104.634 177.42 103.233 177.418 101.772V60.6097C177.42 59.1489 178.001 57.7484 179.034 56.7154C180.067 55.6824 181.467 55.1014 182.928 55.0997H233.49C234.951 55.1014 236.351 55.6824 237.384 56.7154C238.417 57.7484 238.998 59.1489 239 60.6097V101.772C238.998 103.233 238.417 104.634 237.384 105.667C236.351 106.7 234.951 107.281 233.49 107.282ZM182.928 55.748C181.639 55.7494 180.403 56.2621 179.492 57.1735C178.58 58.085 178.068 59.3207 178.066 60.6097V101.772C178.068 103.061 178.58 104.297 179.492 105.209C180.403 106.12 181.639 106.633 182.928 106.634H233.49C234.779 106.633 236.015 106.12 236.926 105.209C237.838 104.297 238.35 103.061 238.352 101.772V60.6097C238.35 59.3207 237.838 58.085 236.926 57.1735C236.015 56.2621 234.779 55.7494 233.49 55.748H182.928Z" fill="#3F3D56"/>
<path d="M227.743 67.4609H202.225C202.001 67.4655 201.783 67.3847 201.616 67.2349C201.449 67.0852 201.345 66.8776 201.325 66.6542C201.319 66.5385 201.337 66.4228 201.377 66.3141C201.417 66.2054 201.478 66.106 201.558 66.0219C201.638 65.9378 201.734 65.8709 201.84 65.8251C201.946 65.7793 202.061 65.7557 202.177 65.7557H228.153C229.008 66.5077 228.487 67.4609 227.743 67.4609Z" fill="#3F3D56"/>
<path d="M227.743 71.937H202.225C202.001 71.9415 201.783 71.8608 201.616 71.711C201.449 71.5612 201.345 71.3537 201.325 71.1302C201.319 71.0146 201.337 70.8989 201.377 70.7902C201.417 70.6815 201.478 70.582 201.558 70.498C201.638 70.4139 201.734 70.3469 201.84 70.3012C201.946 70.2554 202.061 70.2318 202.177 70.2318H228.153C229.008 70.9838 228.487 71.937 227.743 71.937Z" fill="#3F3D56"/>
<path d="M196.708 74.4854H188.921C188.666 74.4851 188.422 74.384 188.243 74.2042C188.063 74.0244 187.962 73.7806 187.961 73.5263V64.336C187.962 64.0817 188.063 63.8379 188.243 63.6581C188.422 63.4783 188.666 63.3772 188.921 63.377H196.708C196.963 63.3773 197.206 63.4785 197.386 63.6582C197.566 63.838 197.667 64.0818 197.667 64.336V73.5263C197.667 73.7806 197.566 74.0244 197.386 74.2042C197.206 74.384 196.963 74.4851 196.708 74.4854Z" fill="#CCCCCC"/>
<path d="M227.499 99.4424H219.712C219.457 99.4422 219.213 99.341 219.034 99.1612C218.854 98.9814 218.753 98.7376 218.752 98.4834V93.1825C218.753 92.9282 218.854 92.6844 219.034 92.5046C219.213 92.3248 219.457 92.2236 219.712 92.2234H227.499C227.754 92.2237 227.997 92.3249 228.177 92.5047C228.357 92.6845 228.458 92.9282 228.458 93.1825V98.4834C228.458 98.7376 228.357 98.9814 228.177 99.1612C227.997 99.341 227.754 99.4422 227.499 99.4424Z" fill="#3F3D56"/>
<path d="M227.669 81.1018H188.724C188.499 81.1063 188.282 81.0255 188.115 80.8758C187.948 80.726 187.844 80.5185 187.824 80.295C187.818 80.1794 187.835 80.0637 187.875 79.955C187.915 79.8462 187.977 79.7468 188.056 79.6628C188.136 79.5787 188.232 79.5117 188.339 79.466C188.445 79.4202 188.56 79.3966 188.675 79.3966H228.079C228.934 80.1486 228.413 81.1018 227.669 81.1018Z" fill="#CCCCCC"/>
<path d="M227.669 85.579H188.724C188.499 85.5835 188.282 85.5027 188.115 85.353C187.948 85.2032 187.844 84.9956 187.824 84.7722C187.818 84.6566 187.835 84.5408 187.875 84.4321C187.915 84.3234 187.977 84.224 188.056 84.1399C188.136 84.0559 188.232 83.9889 188.339 83.9431C188.445 83.8974 188.56 83.8738 188.675 83.8738H228.079C228.934 84.6257 228.413 85.579 227.669 85.579Z" fill="#CCCCCC"/>
<path d="M227.669 90.0533H188.724C188.499 90.0579 188.282 89.9771 188.115 89.8274C187.948 89.6776 187.844 89.47 187.824 89.2466C187.818 89.1309 187.835 89.0152 187.875 88.9065C187.915 88.7978 187.977 88.6984 188.056 88.6143C188.136 88.5302 188.232 88.4633 188.339 88.4175C188.445 88.3718 188.56 88.3481 188.675 88.3481H228.079C228.934 89.1001 228.413 90.0533 227.669 90.0533Z" fill="#CCCCCC"/>
<path d="M207.249 94.5304H188.724C188.499 94.5349 188.282 94.4541 188.115 94.3044C187.948 94.1546 187.844 93.9471 187.824 93.7236C187.818 93.608 187.835 93.4923 187.875 93.3836C187.915 93.2748 187.977 93.1754 188.056 93.0913C188.136 93.0073 188.232 92.9403 188.339 92.8946C188.445 92.8488 188.56 92.8252 188.675 92.8252H207.659C208.515 93.5771 207.994 94.5304 207.249 94.5304Z" fill="#CCCCCC"/>
<path d="M207.249 99.0051H188.724C188.499 99.0097 188.282 98.9289 188.115 98.7791C187.948 98.6294 187.844 98.4218 187.824 98.1984C187.818 98.0827 187.835 97.967 187.875 97.8583C187.915 97.7496 187.977 97.6502 188.056 97.5661C188.136 97.482 188.232 97.4151 188.339 97.3693C188.445 97.3235 188.56 97.2999 188.675 97.2999H207.659C208.515 98.0519 207.994 99.0051 207.249 99.0051Z" fill="#CCCCCC"/>
<path d="M222.47 59.3133H193.948C193.518 59.3128 193.106 59.1419 192.803 58.838C192.499 58.5342 192.328 58.1223 192.327 57.6927V52.5068C192.328 52.0772 192.499 51.6652 192.803 51.3614C193.106 51.0576 193.518 50.8867 193.948 50.8862H222.47C222.9 50.8867 223.312 51.0576 223.616 51.3614C223.919 51.6652 224.09 52.0772 224.091 52.5068V57.6927C224.09 58.1223 223.919 58.5342 223.616 58.838C223.312 59.1419 222.9 59.3128 222.47 59.3133Z" fill="#F9A826"/>
<path d="M123.812 176.319H0.324116C0.238155 176.319 0.155715 176.285 0.0949312 176.224C0.0341476 176.164 0 176.081 0 175.995C0 175.909 0.0341476 175.827 0.0949312 175.766C0.155715 175.705 0.238155 175.671 0.324116 175.671H123.812C123.898 175.671 123.981 175.705 124.042 175.766C124.102 175.827 124.137 175.909 124.137 175.995C124.137 176.081 124.102 176.164 124.042 176.224C123.981 176.285 123.898 176.319 123.812 176.319Z" fill="#3F3D56"/>
<path d="M31.3629 9.65579C32.5205 9.65579 33.4589 8.71737 33.4589 7.55977C33.4589 6.40217 32.5205 5.46375 31.3629 5.46375C30.2053 5.46375 29.2668 6.40217 29.2668 7.55977C29.2668 8.71737 30.2053 9.65579 31.3629 9.65579Z" fill="#F2F2F2"/>
<path d="M31.3629 18.0093C32.5205 18.0093 33.4589 17.0709 33.4589 15.9133C33.4589 14.7557 32.5205 13.8173 31.3629 13.8173C30.2053 13.8173 29.2668 14.7557 29.2668 15.9133C29.2668 17.0709 30.2053 18.0093 31.3629 18.0093Z" fill="#F2F2F2"/>
<path d="M31.3629 26.3628C32.5205 26.3628 33.4589 25.4244 33.4589 24.2668C33.4589 23.1092 32.5205 22.1708 31.3629 22.1708C30.2053 22.1708 29.2668 23.1092 29.2668 24.2668C29.2668 25.4244 30.2053 26.3628 31.3629 26.3628Z" fill="#F2F2F2"/>
<path d="M31.3629 34.7165C32.5205 34.7165 33.4589 33.778 33.4589 32.6204C33.4589 31.4628 32.5205 30.5244 31.3629 30.5244C30.2053 30.5244 29.2668 31.4628 29.2668 32.6204C29.2668 33.778 30.2053 34.7165 31.3629 34.7165Z" fill="#F2F2F2"/>
<path d="M40.1141 9.65579C41.2717 9.65579 42.2101 8.71737 42.2101 7.55977C42.2101 6.40217 41.2717 5.46375 40.1141 5.46375C38.9565 5.46375 38.0181 6.40217 38.0181 7.55977C38.0181 8.71737 38.9565 9.65579 40.1141 9.65579Z" fill="#F2F2F2"/>
<path d="M40.1141 18.0093C41.2717 18.0093 42.2101 17.0709 42.2101 15.9133C42.2101 14.7557 41.2717 13.8173 40.1141 13.8173C38.9565 13.8173 38.0181 14.7557 38.0181 15.9133C38.0181 17.0709 38.9565 18.0093 40.1141 18.0093Z" fill="#F2F2F2"/>
<path d="M40.1141 26.3628C41.2717 26.3628 42.2101 25.4244 42.2101 24.2668C42.2101 23.1092 41.2717 22.1708 40.1141 22.1708C38.9565 22.1708 38.0181 23.1092 38.0181 24.2668C38.0181 25.4244 38.9565 26.3628 40.1141 26.3628Z" fill="#F2F2F2"/>
<path d="M40.1141 34.7165C41.2717 34.7165 42.2101 33.778 42.2101 32.6204C42.2101 31.4628 41.2717 30.5244 40.1141 30.5244C38.9565 30.5244 38.0181 31.4628 38.0181 32.6204C38.0181 33.778 38.9565 34.7165 40.1141 34.7165Z" fill="#F2F2F2"/>
<path d="M48.8648 9.65579C50.0224 9.65579 50.9608 8.71737 50.9608 7.55977C50.9608 6.40217 50.0224 5.46375 48.8648 5.46375C47.7072 5.46375 46.7688 6.40217 46.7688 7.55977C46.7688 8.71737 47.7072 9.65579 48.8648 9.65579Z" fill="#F2F2F2"/>
<path d="M48.8648 18.0093C50.0224 18.0093 50.9608 17.0709 50.9608 15.9133C50.9608 14.7557 50.0224 13.8173 48.8648 13.8173C47.7072 13.8173 46.7688 14.7557 46.7688 15.9133C46.7688 17.0709 47.7072 18.0093 48.8648 18.0093Z" fill="#F2F2F2"/>
<path d="M48.8648 26.3628C50.0224 26.3628 50.9608 25.4244 50.9608 24.2668C50.9608 23.1092 50.0224 22.1708 48.8648 22.1708C47.7072 22.1708 46.7688 23.1092 46.7688 24.2668C46.7688 25.4244 47.7072 26.3628 48.8648 26.3628Z" fill="#F2F2F2"/>
<path d="M48.8648 34.7165C50.0224 34.7165 50.9608 33.778 50.9608 32.6204C50.9608 31.4628 50.0224 30.5244 48.8648 30.5244C47.7072 30.5244 46.7688 31.4628 46.7688 32.6204C46.7688 33.778 47.7072 34.7165 48.8648 34.7165Z" fill="#F2F2F2"/>
<path d="M57.616 9.65579C58.7736 9.65579 59.7121 8.71737 59.7121 7.55977C59.7121 6.40217 58.7736 5.46375 57.616 5.46375C56.4584 5.46375 55.52 6.40217 55.52 7.55977C55.52 8.71737 56.4584 9.65579 57.616 9.65579Z" fill="#F2F2F2"/>
<path d="M57.616 18.0093C58.7736 18.0093 59.7121 17.0709 59.7121 15.9133C59.7121 14.7557 58.7736 13.8173 57.616 13.8173C56.4584 13.8173 55.52 14.7557 55.52 15.9133C55.52 17.0709 56.4584 18.0093 57.616 18.0093Z" fill="#F2F2F2"/>
<path d="M57.616 26.3628C58.7736 26.3628 59.7121 25.4244 59.7121 24.2668C59.7121 23.1092 58.7736 22.1708 57.616 22.1708C56.4584 22.1708 55.52 23.1092 55.52 24.2668C55.52 25.4244 56.4584 26.3628 57.616 26.3628Z" fill="#F2F2F2"/>
<path d="M57.616 34.7165C58.7736 34.7165 59.7121 33.778 59.7121 32.6204C59.7121 31.4628 58.7736 30.5244 57.616 30.5244C56.4584 30.5244 55.52 31.4628 55.52 32.6204C55.52 33.778 56.4584 34.7165 57.616 34.7165Z" fill="#F2F2F2"/>
<path d="M66.3673 9.65579C67.5249 9.65579 68.4633 8.71737 68.4633 7.55977C68.4633 6.40217 67.5249 5.46375 66.3673 5.46375C65.2097 5.46375 64.2712 6.40217 64.2712 7.55977C64.2712 8.71737 65.2097 9.65579 66.3673 9.65579Z" fill="#F2F2F2"/>
<path d="M66.3673 18.0093C67.5249 18.0093 68.4633 17.0709 68.4633 15.9133C68.4633 14.7557 67.5249 13.8173 66.3673 13.8173C65.2097 13.8173 64.2712 14.7557 64.2712 15.9133C64.2712 17.0709 65.2097 18.0093 66.3673 18.0093Z" fill="#F2F2F2"/>
<path d="M66.3673 26.3628C67.5249 26.3628 68.4633 25.4244 68.4633 24.2668C68.4633 23.1092 67.5249 22.1708 66.3673 22.1708C65.2097 22.1708 64.2712 23.1092 64.2712 24.2668C64.2712 25.4244 65.2097 26.3628 66.3673 26.3628Z" fill="#F2F2F2"/>
<path d="M66.3673 34.7165C67.5249 34.7165 68.4633 33.778 68.4633 32.6204C68.4633 31.4628 67.5249 30.5244 66.3673 30.5244C65.2097 30.5244 64.2712 31.4628 64.2712 32.6204C64.2712 33.778 65.2097 34.7165 66.3673 34.7165Z" fill="#F2F2F2"/>
<path d="M75.1185 9.65579C76.2761 9.65579 77.2145 8.71737 77.2145 7.55977C77.2145 6.40217 76.2761 5.46375 75.1185 5.46375C73.9609 5.46375 73.0225 6.40217 73.0225 7.55977C73.0225 8.71737 73.9609 9.65579 75.1185 9.65579Z" fill="#F2F2F2"/>
<path d="M75.1185 18.0093C76.2761 18.0093 77.2145 17.0709 77.2145 15.9133C77.2145 14.7557 76.2761 13.8173 75.1185 13.8173C73.9609 13.8173 73.0225 14.7557 73.0225 15.9133C73.0225 17.0709 73.9609 18.0093 75.1185 18.0093Z" fill="#F2F2F2"/>
<path d="M75.1185 26.3628C76.2761 26.3628 77.2145 25.4244 77.2145 24.2668C77.2145 23.1092 76.2761 22.1708 75.1185 22.1708C73.9609 22.1708 73.0225 23.1092 73.0225 24.2668C73.0225 25.4244 73.9609 26.3628 75.1185 26.3628Z" fill="#F2F2F2"/>
<path d="M75.1185 34.7165C76.2761 34.7165 77.2145 33.778 77.2145 32.6204C77.2145 31.4628 76.2761 30.5244 75.1185 30.5244C73.9609 30.5244 73.0225 31.4628 73.0225 32.6204C73.0225 33.778 73.9609 34.7165 75.1185 34.7165Z" fill="#F2F2F2"/>
<path d="M195.042 125.689C196.199 125.689 197.138 124.751 197.138 123.593C197.138 122.436 196.199 121.497 195.042 121.497C193.884 121.497 192.946 122.436 192.946 123.593C192.946 124.751 193.884 125.689 195.042 125.689Z" fill="#F2F2F2"/>
<path d="M195.042 134.043C196.199 134.043 197.138 133.104 197.138 131.947C197.138 130.789 196.199 129.851 195.042 129.851C193.884 129.851 192.946 130.789 192.946 131.947C192.946 133.104 193.884 134.043 195.042 134.043Z" fill="#F2F2F2"/>
<path d="M195.042 142.396C196.199 142.396 197.138 141.458 197.138 140.3C197.138 139.143 196.199 138.204 195.042 138.204C193.884 138.204 192.946 139.143 192.946 140.3C192.946 141.458 193.884 142.396 195.042 142.396Z" fill="#F2F2F2"/>
<path d="M203.793 125.689C204.95 125.689 205.889 124.751 205.889 123.593C205.889 122.436 204.95 121.497 203.793 121.497C202.635 121.497 201.697 122.436 201.697 123.593C201.697 124.751 202.635 125.689 203.793 125.689Z" fill="#F2F2F2"/>
<path d="M203.793 134.043C204.95 134.043 205.889 133.104 205.889 131.947C205.889 130.789 204.95 129.851 203.793 129.851C202.635 129.851 201.697 130.789 201.697 131.947C201.697 133.104 202.635 134.043 203.793 134.043Z" fill="#F2F2F2"/>
<path d="M203.793 142.396C204.95 142.396 205.889 141.458 205.889 140.3C205.889 139.143 204.95 138.204 203.793 138.204C202.635 138.204 201.697 139.143 201.697 140.3C201.697 141.458 202.635 142.396 203.793 142.396Z" fill="#F2F2F2"/>
<path d="M212.544 125.689C213.701 125.689 214.64 124.751 214.64 123.593C214.64 122.436 213.701 121.497 212.544 121.497C211.386 121.497 210.448 122.436 210.448 123.593C210.448 124.751 211.386 125.689 212.544 125.689Z" fill="#F2F2F2"/>
<path d="M212.544 134.043C213.701 134.043 214.64 133.104 214.64 131.947C214.64 130.789 213.701 129.851 212.544 129.851C211.386 129.851 210.448 130.789 210.448 131.947C210.448 133.104 211.386 134.043 212.544 134.043Z" fill="#F2F2F2"/>
<path d="M212.544 142.396C213.701 142.396 214.64 141.458 214.64 140.3C214.64 139.143 213.701 138.204 212.544 138.204C211.386 138.204 210.448 139.143 210.448 140.3C210.448 141.458 211.386 142.396 212.544 142.396Z" fill="#F2F2F2"/>
<path d="M221.295 125.689C222.452 125.689 223.391 124.751 223.391 123.593C223.391 122.436 222.452 121.497 221.295 121.497C220.137 121.497 219.199 122.436 219.199 123.593C219.199 124.751 220.137 125.689 221.295 125.689Z" fill="#F2F2F2"/>
<path d="M221.295 134.043C222.452 134.043 223.391 133.104 223.391 131.947C223.391 130.789 222.452 129.851 221.295 129.851C220.137 129.851 219.199 130.789 219.199 131.947C219.199 133.104 220.137 134.043 221.295 134.043Z" fill="#F2F2F2"/>
<path d="M221.295 142.396C222.452 142.396 223.391 141.458 223.391 140.3C223.391 139.143 222.452 138.204 221.295 138.204C220.137 138.204 219.199 139.143 219.199 140.3C219.199 141.458 220.137 142.396 221.295 142.396Z" fill="#F2F2F2"/>
</g>
<defs>
<clipPath id="clip0_162_346">
<rect width="239" height="176.319" fill="white"/>
</clipPath>
</defs>
</svg>
