<svg width="30" height="30" viewBox="0 0 30 30" fill="none" xmlns="http://www.w3.org/2000/svg">
<path d="M6.66667 23.3333H23.3333C23.6667 23.3333 23.9167 23.1806 24.0833 22.875C24.25 22.5694 24.2222 22.2778 24 22L19.4167 15.875C19.25 15.6528 19.0278 15.5417 18.75 15.5417C18.4722 15.5417 18.25 15.6528 18.0833 15.875L13.75 21.6667L10.6667 17.5417C10.5 17.3194 10.2778 17.2083 10 17.2083C9.72222 17.2083 9.5 17.3194 9.33333 17.5417L6 22C5.77778 22.2778 5.75 22.5694 5.91667 22.875C6.08333 23.1806 6.33333 23.3333 6.66667 23.3333ZM3.33333 30C2.41667 30 1.63167 29.6739 0.978333 29.0217C0.326111 28.3683 0 27.5833 0 26.6667V3.33333C0 2.41667 0.326111 1.63167 0.978333 0.978333C1.63167 0.326111 2.41667 0 3.33333 0H26.6667C27.5833 0 28.3683 0.326111 29.0217 0.978333C29.6739 1.63167 30 2.41667 30 3.33333V26.6667C30 27.5833 29.6739 28.3683 29.0217 29.0217C28.3683 29.6739 27.5833 30 26.6667 30H3.33333Z" fill="#545454"/>
</svg>
