<svg width="43" height="51" viewBox="0 0 43 51" fill="none" xmlns="http://www.w3.org/2000/svg">
<path d="M4.41667 47.7C3.20208 47.7 2.16269 47.2333 1.2985 46.3C0.432833 45.3651 0 44.2417 0 42.93V4.77C0 3.45825 0.432833 2.33491 1.2985 1.39999C2.16269 0.466665 3.20208 0 4.41667 0H30.9167C32.1312 0 33.1714 0.466665 34.037 1.39999C34.9012 2.33491 35.3333 3.45825 35.3333 4.77V42.93C35.3333 44.2417 34.9012 45.3651 34.037 46.3C33.1714 47.2333 32.1312 47.7 30.9167 47.7H4.41667ZM15.4583 21.465L20.9792 17.8875L26.5 21.465V4.77H15.4583V21.465Z" fill="#9BD3D3"/>
<path d="M29.5 46.5C27.4114 46.5 25.4084 45.6703 23.9315 44.1935C22.4547 42.7166 21.625 40.7136 21.625 38.625C21.625 36.5364 22.4547 34.5334 23.9315 33.0566C25.4084 31.5797 27.4114 30.75 29.5 30.75C31.5886 30.75 33.5916 31.5797 35.0685 33.0566C36.5453 34.5334 37.375 36.5364 37.375 38.625C37.375 40.7136 36.5453 42.7166 35.0685 44.1935C33.5916 45.6703 31.5886 46.5 29.5 46.5ZM29.5 28.5C26.8147 28.5 24.2393 29.5668 22.3405 31.4656C20.4417 33.3644 19.375 35.9397 19.375 38.625C19.375 41.3103 20.4417 43.8857 22.3405 45.7845C24.2393 47.6833 26.8147 48.75 29.5 48.75C32.1853 48.75 34.7606 47.6833 36.6595 45.7845C38.5583 43.8857 39.625 41.3103 39.625 38.625C39.625 35.9397 38.5583 33.3644 36.6595 31.4656C34.7606 29.5668 32.1853 28.5 29.5 28.5ZM30.0625 33H28.375V39.75L33.7188 42.9563L34.5625 41.5725L30.0625 38.9063V33ZM24.865 27.8138L23.425 26.0925L18.25 30.4238L19.7012 32.145L24.865 27.8138ZM40.75 30.435L35.575 26.0925L34.1238 27.8138L39.2987 32.1563L40.75 30.435Z" fill="white"/>
</svg>
