<svg width="31" height="23" viewBox="0 0 31 23" fill="none" xmlns="http://www.w3.org/2000/svg">
<path d="M27.8333 18.6041C28.4272 18.6044 28.9982 18.7961 29.428 19.1394C29.8578 19.4828 30.1135 19.9515 30.142 20.4485C30.1705 20.9455 29.9698 21.4327 29.5813 21.809C29.1928 22.1854 28.6464 22.4221 28.0553 22.4701L27.8333 22.4791H3.16666C2.57278 22.4789 2.00178 22.2872 1.57198 21.9439C1.14217 21.6005 0.886513 21.1318 0.857973 20.6348C0.829434 20.1378 1.0302 19.6506 1.41868 19.2743C1.80715 18.8979 2.35355 18.6612 2.94466 18.6132L3.16666 18.6041H27.8333ZM27.8333 9.56248C28.4466 9.56248 29.0348 9.76661 29.4685 10.13C29.9022 10.4933 30.1458 10.9861 30.1458 11.5C30.1458 12.0138 29.9022 12.5066 29.4685 12.87C29.0348 13.2334 28.4466 13.4375 27.8333 13.4375H3.16666C2.55334 13.4375 1.96515 13.2334 1.53147 12.87C1.09779 12.5066 0.854156 12.0138 0.854156 11.5C0.854156 10.9861 1.09779 10.4933 1.53147 10.13C1.96515 9.76661 2.55334 9.56248 3.16666 9.56248H27.8333ZM27.8333 0.520813C28.4466 0.520813 29.0348 0.724942 29.4685 1.08829C29.9022 1.45165 30.1458 1.94446 30.1458 2.45831C30.1458 2.97217 29.9022 3.46498 29.4685 3.82833C29.0348 4.19168 28.4466 4.39581 27.8333 4.39581H3.16666C2.55334 4.39581 1.96515 4.19168 1.53147 3.82833C1.09779 3.46498 0.854156 2.97217 0.854156 2.45831C0.854156 1.94446 1.09779 1.45165 1.53147 1.08829C1.96515 0.724942 2.55334 0.520813 3.16666 0.520813H27.8333Z" fill="white"/>
</svg>
