<svg width="40" height="40" viewBox="0 0 40 40" fill="none" xmlns="http://www.w3.org/2000/svg">
<path d="M29.7483 19.68L28.57 18.5017L12.07 35.0017H5V27.93L23.855 9.07338L33.2833 18.5017C33.5958 18.8143 33.7713 19.2381 33.7713 19.68C33.7713 20.122 33.5958 20.5458 33.2833 20.8584L21.5 32.6434L19.1417 30.2867L29.7483 19.68ZM30.9267 4.36005L35.6417 9.07338C35.9541 9.38593 36.1296 9.80977 36.1296 10.2517C36.1296 10.6937 35.9541 11.1175 35.6417 11.43L33.2833 13.7884L26.2133 6.71671L28.57 4.36005C28.8825 4.0476 29.3064 3.87207 29.7483 3.87207C30.1903 3.87207 30.6141 4.0476 30.9267 4.36005Z" fill="#545454"/>
</svg>
