<svg width="54" height="54" viewBox="0 0 54 54" fill="none" xmlns="http://www.w3.org/2000/svg">
<path d="M27 16.875C28.864 16.875 30.375 15.364 30.375 13.5C30.375 11.636 28.864 10.125 27 10.125C25.136 10.125 23.625 11.636 23.625 13.5C23.625 15.364 25.136 16.875 27 16.875Z" fill="#AAAAAA"/>
<path d="M27 30.375C28.864 30.375 30.375 28.864 30.375 27C30.375 25.136 28.864 23.625 27 23.625C25.136 23.625 23.625 25.136 23.625 27C23.625 28.864 25.136 30.375 27 30.375Z" fill="#AAAAAA"/>
<path d="M27 43.875C28.864 43.875 30.375 42.364 30.375 40.5C30.375 38.636 28.864 37.125 27 37.125C25.136 37.125 23.625 38.636 23.625 40.5C23.625 42.364 25.136 43.875 27 43.875Z" fill="#AAAAAA"/>
</svg>
