<svg width="18" height="17" viewBox="0 0 18 17" fill="none" xmlns="http://www.w3.org/2000/svg">
<g clip-path="url(#clip0_169_486)">
<path d="M8.76119 16.4526C8.00964 16.4489 7.28418 16.3486 6.58481 16.1516C5.88544 15.9546 5.23486 15.6753 4.63309 15.3137C4.03131 14.9521 3.48111 14.5224 2.98248 14.0246C2.48385 13.5268 2.05952 12.9724 1.70948 12.3615C1.35944 11.7506 1.08648 11.0945 0.890612 10.3932C0.694741 9.69192 0.598633 8.9655 0.602287 8.21394C0.60594 7.46239 0.706261 6.73693 0.903247 6.03756C1.10023 5.33819 1.37954 4.68762 1.74117 4.08584C2.1028 3.48406 2.53251 2.93386 3.03029 2.43523C3.52806 1.93661 4.08242 1.51227 4.69335 1.16223C5.30428 0.81219 5.96038 0.539234 6.66166 0.343363C7.36294 0.147492 8.08936 0.0513837 8.84091 0.0550375C9.59247 0.0586914 10.3179 0.159012 11.0173 0.355998C11.7167 0.552985 12.3672 0.832293 12.969 1.19392C13.5708 1.55555 14.121 1.98526 14.6196 2.48304C15.1183 2.98081 15.5426 3.53517 15.8926 4.1461C16.2427 4.75703 16.5156 5.41029 16.7115 6.10587C16.9074 6.80146 17.0035 7.53072 16.9998 8.29366C16.9962 9.04522 16.8958 9.77068 16.6989 10.4701C16.5019 11.1694 16.2226 11.82 15.8609 12.4218C15.4993 13.0235 15.0696 13.5737 14.5718 14.0724C14.074 14.571 13.5197 14.9953 12.9088 15.3454C12.2978 15.6954 11.6446 15.9684 10.949 16.1643C10.2534 16.3602 9.52413 16.4563 8.76119 16.4526ZM3.87914 8.77647L8.25181 8.79773L8.23055 13.1704L9.32372 13.1757L9.34498 8.80305L13.7177 8.82431L13.723 7.73114L9.3503 7.70988L9.37155 3.3372L8.27839 3.33189L8.25713 7.70456L3.88445 7.6833L3.87914 8.77647Z" fill="#545454"/>
</g>
<defs>
<clipPath id="clip0_169_486">
<rect width="16.3977" height="16.3977" fill="white" transform="translate(16.96 16.4924) rotate(-179.721)"/>
</clipPath>
</defs>
</svg>
