<svg width="18" height="18" viewBox="0 0 18 18" fill="none" xmlns="http://www.w3.org/2000/svg">
<g clip-path="url(#clip0_169_488)">
<path d="M9.15914 17.3427C4.63137 17.3207 0.978223 13.6319 1.00024 9.10408C1.02225 4.57631 4.71109 0.923161 9.23886 0.945174C13.7666 0.967186 17.4198 4.65603 17.3978 9.1838C17.3758 13.7116 13.6869 17.3647 9.15914 17.3427ZM12.7835 9.6738C12.9133 9.67439 13.0385 9.62568 13.1338 9.53751C13.2291 9.44934 13.2874 9.32828 13.2969 9.19879C13.3063 9.06931 13.2663 8.94105 13.1849 8.83994C13.1034 8.73883 12.9867 8.6724 12.8581 8.65408L12.7885 8.64896L5.61453 8.61408C5.4847 8.61349 5.35949 8.6622 5.26419 8.75037C5.16889 8.83855 5.11062 8.95961 5.10114 9.08909C5.09166 9.21858 5.13168 9.34683 5.21313 9.44794C5.29457 9.54905 5.41135 9.61548 5.53989 9.6338L5.60955 9.63893L12.7835 9.6738Z" fill="#545454"/>
</g>
<defs>
<clipPath id="clip0_169_488">
<rect width="16.3977" height="16.3977" fill="white" transform="translate(17.3579 17.3826) rotate(-179.721)"/>
</clipPath>
</defs>
</svg>
