<svg width="24" height="24" viewBox="0 0 24 24" fill="none" xmlns="http://www.w3.org/2000/svg">
<path d="M18.77 7.98C18.9368 8.14699 19.0305 8.37336 19.0305 8.60938C19.0305 8.84539 18.9368 9.07176 18.77 9.23875L16.395 11.6137C16.228 11.7805 16.0016 11.8742 15.7656 11.8742C15.5296 11.8742 15.3032 11.7805 15.1363 11.6137L13.9488 10.4262C13.8612 10.3447 13.7911 10.2464 13.7424 10.1371C13.6937 10.0279 13.6675 9.90995 13.6654 9.79037C13.6633 9.67079 13.6853 9.552 13.7301 9.4411C13.7749 9.3302 13.8416 9.22946 13.9261 9.14489C14.0107 9.06032 14.1115 8.99365 14.2224 8.94885C14.3333 8.90406 14.452 8.88206 14.5716 8.88417C14.6912 8.88628 14.8091 8.91246 14.9184 8.96113C15.0276 9.00981 15.126 9.08 15.2075 9.1675L15.7656 9.72562L17.5112 7.98C17.6782 7.81322 17.9046 7.71953 18.1406 7.71953C18.3766 7.71953 18.603 7.81322 18.77 7.98ZM18.77 15.77C18.8575 15.6885 18.9277 15.5901 18.9764 15.4809C19.025 15.3716 19.0512 15.2537 19.0533 15.1341C19.0554 15.0145 19.0334 14.8958 18.9886 14.7849C18.9439 14.674 18.8772 14.5732 18.7926 14.4886C18.708 14.4041 18.6073 14.3374 18.4964 14.2926C18.3855 14.2478 18.2667 14.2258 18.1471 14.2279C18.0275 14.23 17.9096 14.2562 17.8004 14.3049C17.6911 14.3536 17.5928 14.4237 17.5112 14.5113L15.7656 16.2569L15.2075 15.6988C15.126 15.6112 15.0276 15.5411 14.9184 15.4924C14.8091 15.4437 14.6912 15.4175 14.5716 15.4154C14.452 15.4133 14.3333 15.4353 14.2224 15.4801C14.1115 15.5249 14.0107 15.5916 13.9261 15.6761C13.8416 15.7607 13.7749 15.8615 13.7301 15.9724C13.6853 16.0833 13.6633 16.202 13.6654 16.3216C13.6675 16.4412 13.6937 16.5591 13.7424 16.6684C13.7911 16.7776 13.8612 16.876 13.9488 16.9575L15.1363 18.145C15.3032 18.3118 15.5296 18.4055 15.7656 18.4055C16.0016 18.4055 16.228 18.3118 16.395 18.145L18.77 15.77ZM6.5625 9.79688C6.5625 9.56067 6.65633 9.33413 6.82336 9.16711C6.99038 9.00008 7.21692 8.90625 7.45312 8.90625H11.6094C11.8456 8.90625 12.0721 9.00008 12.2391 9.16711C12.4062 9.33413 12.5 9.56067 12.5 9.79688C12.5 10.0331 12.4062 10.2596 12.2391 10.4266C12.0721 10.5937 11.8456 10.6875 11.6094 10.6875H7.45312C7.21692 10.6875 6.99038 10.5937 6.82336 10.4266C6.65633 10.2596 6.5625 10.0331 6.5625 9.79688ZM7.45312 15.4375C7.21692 15.4375 6.99038 15.5313 6.82336 15.6984C6.65633 15.8654 6.5625 16.0919 6.5625 16.3281C6.5625 16.5643 6.65633 16.7909 6.82336 16.9579C6.99038 17.1249 7.21692 17.2188 7.45312 17.2188H11.6094C11.8456 17.2188 12.0721 17.1249 12.2391 16.9579C12.4062 16.7909 12.5 16.5643 12.5 16.3281C12.5 16.0919 12.4062 15.8654 12.2391 15.6984C12.0721 15.5313 11.8456 15.4375 11.6094 15.4375H7.45312ZM17.2334 2.375C17.1604 1.72186 16.8492 1.11855 16.3593 0.680404C15.8695 0.242258 15.2353 1.98557e-05 14.5781 0H10.4219C9.76467 1.98557e-05 9.13052 0.242258 8.64068 0.680404C8.15083 1.11855 7.83965 1.72186 7.76662 2.375H5.67188C4.96325 2.375 4.28365 2.6565 3.78257 3.15757C3.2815 3.65865 3 4.33825 3 5.04688V21.0781C3 21.7868 3.2815 22.4664 3.78257 22.9674C4.28365 23.4685 4.96325 23.75 5.67188 23.75H19.3281C19.679 23.75 20.0264 23.6809 20.3506 23.5466C20.6748 23.4123 20.9693 23.2155 21.2174 22.9674C21.4655 22.7193 21.6623 22.4248 21.7966 22.1006C21.9309 21.7764 22 21.429 22 21.0781V5.04688C22 4.696 21.9309 4.34856 21.7966 4.02439C21.6623 3.70023 21.4655 3.40568 21.2174 3.15757C20.9693 2.90947 20.6748 2.71266 20.3506 2.57838C20.0264 2.44411 19.679 2.375 19.3281 2.375H17.2334ZM10.4219 5.34375H14.5781C15.5044 5.34375 16.3202 4.87231 16.7999 4.15625H19.3281C19.5643 4.15625 19.7909 4.25008 19.9579 4.41711C20.1249 4.58413 20.2188 4.81067 20.2188 5.04688V21.0781C20.2188 21.3143 20.1249 21.5409 19.9579 21.7079C19.7909 21.8749 19.5643 21.9688 19.3281 21.9688H5.67188C5.43567 21.9688 5.20913 21.8749 5.04211 21.7079C4.87508 21.5409 4.78125 21.3143 4.78125 21.0781V5.04688C4.78125 4.81067 4.87508 4.58413 5.04211 4.41711C5.20913 4.25008 5.43567 4.15625 5.67188 4.15625H8.20006C8.67981 4.87231 9.49563 5.34375 10.4219 5.34375ZM10.4219 1.78125H14.5781C14.8143 1.78125 15.0409 1.87508 15.2079 2.04211C15.3749 2.20913 15.4688 2.43567 15.4688 2.67188C15.4688 2.90808 15.3749 3.13462 15.2079 3.30164C15.0409 3.46867 14.8143 3.5625 14.5781 3.5625H10.4219C10.1857 3.5625 9.95913 3.46867 9.79211 3.30164C9.62508 3.13462 9.53125 2.90808 9.53125 2.67188C9.53125 2.43567 9.62508 2.20913 9.79211 2.04211C9.95913 1.87508 10.1857 1.78125 10.4219 1.78125Z" fill="#545454"/>
</svg>
