<svg width="40" height="40" viewBox="0 0 40 40" fill="none" xmlns="http://www.w3.org/2000/svg">
<path d="M20 7C23.4478 7 26.7544 8.36964 29.1924 10.8076C31.6304 13.2456 33 16.5522 33 20C33 23.4478 31.6304 26.7544 29.1924 29.1924C26.7544 31.6304 23.4478 33 20 33V7ZM20 4C15.7565 4 11.6869 5.68571 8.68629 8.68629C5.68571 11.6869 4 15.7565 4 20C4 24.2435 5.68571 28.3131 8.68629 31.3137C11.6869 34.3143 15.7565 36 20 36C24.2435 36 28.3131 34.3143 31.3137 31.3137C34.3143 28.3131 36 24.2435 36 20C36 15.7565 34.3143 11.6869 31.3137 8.68629C28.3131 5.68571 24.2435 4 20 4Z" fill="#545454"/>
</svg>
