<svg width="30" height="30" viewBox="0 0 30 30" fill="none" xmlns="http://www.w3.org/2000/svg">
<path d="M14.9875 2.5C8.0875 2.5 2.5 8.1 2.5 15C2.5 21.9 8.0875 27.5 14.9875 27.5C21.9 27.5 27.5 21.9 27.5 15C27.5 8.1 21.9 2.5 14.9875 2.5ZM20 20C19.8844 20.1159 19.747 20.2078 19.5958 20.2705C19.4446 20.3333 19.2825 20.3656 19.1188 20.3656C18.955 20.3656 18.7929 20.3333 18.6417 20.2705C18.4905 20.2078 18.3531 20.1159 18.2375 20L14.125 15.8875C14.0069 15.7717 13.9129 15.6337 13.8486 15.4813C13.7842 15.329 13.7507 15.1654 13.75 15V10C13.75 9.3125 14.3125 8.75 15 8.75C15.6875 8.75 16.25 9.3125 16.25 10V14.4875L20 18.2375C20.4875 18.725 20.4875 19.5125 20 20Z" fill="#545454"/>
</svg>
